<svg xmlns="http://www.w3.org/2000/svg" xmlns:xlink="http://www.w3.org/1999/xlink" width="500" zoomAndPan="magnify" viewBox="0 0 375 374.999991" height="500" preserveAspectRatio="xMidYMid meet" version="1.0"><defs><clipPath id="be4d31a9fb"><path d="M 84 54 L 300 54 L 300 305 L 84 305 Z M 84 54 " clip-rule="nonzero"/></clipPath><clipPath id="ed0795fb25"><path d="M 252.652344 347.328125 L 37.40625 246.359375 L 139.964844 27.71875 L 355.210938 128.6875 Z M 252.652344 347.328125 " clip-rule="nonzero"/></clipPath><clipPath id="1381448292"><path d="M 252.652344 347.328125 L 37.40625 246.359375 L 139.964844 27.71875 L 355.210938 128.6875 Z M 252.652344 347.328125 " clip-rule="nonzero"/></clipPath></defs><g clip-path="url(#be4d31a9fb)"><g clip-path="url(#ed0795fb25)"><g clip-path="url(#1381448292)"><path fill="#ff6600" d="M 197.949219 54.78125 C 167.886719 64.328125 142.113281 83.488281 125.910156 108.59375 C 109.441406 133.40625 102.265625 163.597656 106.015625 192.164062 C 107.933594 206.582031 112 220.023438 118.96875 232.046875 C 126.042969 243.96875 135.824219 254.144531 147.234375 261.777344 C 169.722656 277.558594 199.769531 281.644531 225.195312 273.585938 C 231.386719 271.484375 237.320312 268.679688 242.796875 265.070312 C 248.125 261.28125 253.15625 257.011719 257.347656 251.921875 C 265.773438 241.808594 271.230469 229.296875 273.0625 216.234375 C 273.949219 209.71875 274.1875 203.019531 273.117188 196.429688 C 272.269531 189.832031 270.507812 183.789062 267.511719 178.054688 C 261.542969 166.75 251.5625 157.375 239.464844 152.175781 C 227.53125 146.824219 212.964844 146.421875 200.644531 150.335938 C 188.183594 154.285156 177.730469 164.574219 172.820312 177.359375 C 167.855469 190.054688 168.300781 205.8125 176.40625 217.59375 C 184.34375 229.550781 199.707031 236.957031 215.46875 235.148438 C 207.945312 237.449219 199.546875 237.707031 191.585938 235.484375 C 183.617188 233.328125 176.179688 228.703125 170.40625 222.390625 C 164.515625 216.15625 160.667969 207.804688 159.109375 199.308594 C 157.4375 190.84375 157.558594 181.832031 159.839844 173.265625 C 164.390625 156.167969 176.941406 140.84375 193.898438 133.449219 C 210.882812 126.183594 229.785156 125.933594 247.132812 131.914062 C 264.414062 137.78125 279.609375 150.128906 288.828125 166.328125 C 293.480469 174.320312 296.566406 183.46875 298.085938 192.351562 C 299.863281 201.207031 300.023438 210.386719 299.148438 219.414062 C 295.488281 255.800781 268.929688 288.671875 233.808594 299.941406 C 199.304688 310.339844 160.859375 304.28125 132.234375 283.242188 C 117.976562 272.835938 106.085938 259.300781 97.792969 243.835938 C 93.882812 235.992188 90.40625 227.910156 88.339844 219.429688 C 86.109375 210.925781 85.167969 202.515625 84.550781 194.035156 C 82.152344 159.980469 94.0625 125.949219 115.046875 100.527344 C 136.113281 75.050781 166.539062 58.296875 197.949219 54.78125 Z M 197.949219 54.78125 " fill-opacity="1" fill-rule="nonzero"/></g></g></g></svg>