<svg xmlns="http://www.w3.org/2000/svg" xmlns:xlink="http://www.w3.org/1999/xlink" width="100" zoomAndPan="magnify" viewBox="0 0 75 74.999997" height="100" preserveAspectRatio="xMidYMid meet" version="1.0"><defs><clipPath id="783d123509"><path d="M 12 8 L 63 8 L 63 67 L 12 67 Z M 12 8 " clip-rule="nonzero"/></clipPath><clipPath id="6b9487741a"><path d="M 54.53125 74.996094 L 3.238281 55.84375 L 22.652344 3.851562 L 73.941406 23 Z M 54.53125 74.996094 " clip-rule="nonzero"/></clipPath><clipPath id="d7852e9380"><path d="M 54.53125 74.996094 L 3.238281 55.84375 L 22.652344 3.851562 L 73.941406 23 Z M 54.53125 74.996094 " clip-rule="nonzero"/></clipPath></defs><g clip-path="url(#783d123509)"><g clip-path="url(#6b9487741a)"><g clip-path="url(#d7852e9380)"><path fill="#ffffff" d="M 36.523438 8.9375 C 29.808594 11.6875 24.257812 16.5625 21.011719 22.621094 C 17.699219 28.621094 16.617188 35.675781 18.011719 42.15625 C 18.71875 45.425781 19.902344 48.433594 21.726562 51.058594 C 23.570312 53.660156 26.003906 55.8125 28.761719 57.347656 C 34.214844 60.546875 41.179688 60.921875 46.859375 58.601562 C 48.238281 58.003906 49.546875 57.25 50.734375 56.320312 C 51.886719 55.351562 52.960938 54.277344 53.828125 53.03125 C 55.570312 50.554688 56.585938 47.585938 56.761719 44.554688 C 56.84375 43.046875 56.773438 41.503906 56.40625 40.011719 C 56.089844 38.515625 55.574219 37.164062 54.777344 35.90625 C 53.199219 33.425781 50.734375 31.460938 47.863281 30.496094 C 45.027344 29.492188 41.679688 29.671875 38.929688 30.796875 C 36.144531 31.9375 33.941406 34.492188 33.054688 37.515625 C 32.152344 40.519531 32.546875 44.121094 34.625 46.671875 C 36.667969 49.265625 40.332031 50.675781 43.910156 49.96875 C 42.230469 50.636719 40.308594 50.851562 38.441406 50.492188 C 36.574219 50.144531 34.78125 49.222656 33.339844 47.882812 C 31.875 46.566406 30.835938 44.722656 30.320312 42.800781 C 29.777344 40.894531 29.636719 38.824219 30 36.816406 C 30.722656 32.8125 33.316406 29.0625 37.066406 27.050781 C 40.824219 25.070312 45.152344 24.660156 49.242188 25.707031 C 53.316406 26.730469 57.03125 29.277344 59.445312 32.816406 C 60.664062 34.5625 61.542969 36.605469 62.054688 38.613281 C 62.628906 40.609375 62.835938 42.710938 62.804688 44.796875 C 62.644531 53.210938 57.167969 61.242188 49.328125 64.480469 C 41.609375 67.511719 32.679688 66.839844 25.722656 62.550781 C 22.261719 60.429688 19.28125 57.550781 17.089844 54.15625 C 16.046875 52.433594 15.101562 50.644531 14.46875 48.738281 C 13.796875 46.828125 13.425781 44.917969 13.125 42.984375 C 11.9375 35.222656 14.035156 27.195312 18.371094 20.976562 C 22.726562 14.742188 29.390625 10.332031 36.523438 8.9375 Z M 36.523438 8.9375 " fill-opacity="1" fill-rule="nonzero"/></g></g></g></svg>